<svg width="80" height="70" viewBox="0 0 80 70" fill="none" xmlns="http://www.w3.org/2000/svg">
<path d="M79.004 40.6126C77.1562 35.2048 73.045 31.2126 68.0896 29.3311C65.5225 28.3562 63.8168 25.9161 63.7792 23.1703C63.7784 23.1103 63.7773 23.0501 63.7759 22.99C63.5404 12.8991 55.1059 4.81343 45.0139 4.98671C39.0617 5.0889 33.797 8.01093 30.4975 12.4742C27.6561 16.3178 23.2334 18.7187 18.4537 18.7162C18.3134 18.7162 18.1729 18.7176 18.0318 18.7208C8.35731 18.9323 0.130745 27.233 0.00168214 36.9089C-0.135818 47.2106 8.17387 55.6048 18.4442 55.6048C26.4046 55.6048 33.1862 50.5615 35.7701 43.4959C36.4462 41.6472 38.4501 40.6562 40.3456 41.1878C40.3692 41.1943 40.3929 41.2011 40.4167 41.2076C42.1509 41.6864 43.3007 43.3389 43.1589 45.1325C42.9687 47.5361 43.2497 50.0161 44.0648 52.4444C47.2712 61.9967 57.6879 67.2389 67.2668 64.1131C77.0654 60.9154 82.3261 50.3342 79.004 40.6126Z" fill="url(#paint0_linear)"/>
<path opacity="0.1" d="M71.25 26.8334V12.3055C71.25 11.0117 70.2 9.96171 68.9062 9.96171H46.2295L41.343 1.74702C40.7372 0.728737 39.263 0.728737 38.6572 1.74702L33.7706 9.96171H11.0938C9.8 9.96171 8.75 11.0117 8.75 12.3055V26.8334H71.25Z" fill="#2626BC"/>
<path d="M48.8607 69.0176H31.1387L34.6827 54.9701H45.3166L48.8607 69.0176Z" fill="white"/>
<path d="M71.25 15.5873V55.3139C71.25 56.6077 70.2 57.6577 68.9062 57.6577H11.0938C9.8 57.6577 8.75 56.6077 8.75 55.3139V15.5873C8.75 14.2936 9.8 13.2436 11.0938 13.2436H68.9062C70.2 13.2436 71.25 14.2936 71.25 15.5873Z" fill="white"/>
<path d="M71.25 27.3022V15.5873C71.25 14.2936 70.2 13.2436 68.9062 13.2436H11.0938C9.8 13.2436 8.75 14.2936 8.75 15.5873V27.3022H71.25Z" fill="#6583FE"/>
<path d="M71.25 20.7703V15.5873C71.25 14.293 70.2006 13.2436 68.9062 13.2436H11.0938C9.79937 13.2436 8.75 14.293 8.75 15.5873V20.7703H71.25Z" fill="white"/>
<path d="M8.75 49.7839V55.3136C8.75 56.608 9.79937 57.6573 11.0938 57.6573H68.9062C70.2006 57.6573 71.25 56.608 71.25 55.3136V49.7839H8.75Z" fill="white"/>
<path d="M14.6992 17.7995C14.2677 17.7995 13.918 17.4497 13.918 17.0183V16.9956C13.918 16.5642 14.2677 16.2144 14.6992 16.2144C15.1308 16.2144 15.4805 16.5642 15.4805 16.9956V17.0183C15.4805 17.4497 15.1308 17.7995 14.6992 17.7995Z" fill="#2626BC"/>
<path d="M17.7188 17.7995C17.2872 17.7995 16.9375 17.4497 16.9375 17.0183V16.9956C16.9375 16.5642 17.2872 16.2144 17.7188 16.2144C18.1503 16.2144 18.5 16.5642 18.5 16.9956V17.0183C18.5 17.4497 18.1503 17.7995 17.7188 17.7995Z" fill="#2626BC"/>
<path d="M20.7383 17.7995C20.3067 17.7995 19.957 17.4497 19.957 17.0183V16.9956C19.957 16.5642 20.3067 16.2144 20.7383 16.2144C21.1698 16.2144 21.5195 16.5642 21.5195 16.9956V17.0183C21.5195 17.4497 21.1698 17.7995 20.7383 17.7995Z" fill="#2626BC"/>
<path d="M21.6547 38.2308H58.347C59.5589 38.2308 60.3095 36.9109 59.6898 35.8695L41.3439 5.02842C40.7381 4.01014 39.2639 4.01014 38.6581 5.02842L20.3119 35.8695C19.6923 36.9111 20.4428 38.2308 21.6547 38.2308Z" fill="white"/>
<path d="M68.9062 12.4623H50.5241C50.0925 12.4623 49.7428 12.8122 49.7428 13.2436C49.7428 13.675 50.0925 14.0248 50.5241 14.0248H68.9062C69.7678 14.0248 70.4688 14.7258 70.4688 15.5873V19.989H51.1514L42.0142 4.62889C41.5875 3.9117 40.8344 3.48342 39.9997 3.48342C39.1652 3.48342 38.4122 3.9117 37.9856 4.62905L33.3258 12.4623H11.0938C9.37063 12.4623 7.96875 13.8642 7.96875 15.5873V55.3134C7.96875 57.0366 9.37063 58.4384 11.0938 58.4384H33.0023L31.4852 64.452C31.3795 64.8705 31.6331 65.2951 32.0516 65.4006C32.1156 65.4169 32.1798 65.4245 32.2433 65.4245C32.5927 65.4245 32.9108 65.1884 33.0002 64.8342L34.6138 58.4383H45.3864L47.8581 68.2353H28.1353C27.7037 68.2353 27.3541 68.5851 27.3541 69.0165C27.3541 69.448 27.7037 69.7978 28.1353 69.7978H51.8645C52.2961 69.7978 52.6458 69.448 52.6458 69.0165C52.6458 68.5851 52.2961 68.2353 51.8645 68.2353H49.4692L46.9975 58.4383H68.9062C70.6294 58.4383 72.0312 57.0364 72.0312 55.3133V15.5873C72.0312 13.8642 70.6294 12.4623 68.9062 12.4623ZM70.4688 21.5515V49.0025H9.53125V21.5515H27.9192L19.6397 35.47C19.2031 36.2037 19.1944 37.0847 19.6166 37.8269C20.0387 38.569 20.8002 39.012 21.6539 39.012H58.3464C59.2002 39.012 59.9617 38.569 60.3838 37.8269C60.8058 37.0847 60.7972 36.2037 60.3606 35.4701L52.0811 21.5517L70.4688 21.5515ZM39.3286 5.4278C39.5338 5.08311 39.8662 5.04608 40 5.04592C40.1334 5.04592 40.4664 5.08311 40.6716 5.4278L59.0177 36.2689C59.2273 36.6214 59.0928 36.9358 59.0255 37.0544C58.9578 37.1731 58.7564 37.4494 58.3462 37.4494H21.6537C21.2436 37.4494 21.0422 37.1731 20.9745 37.0544C20.907 36.9356 20.7727 36.6214 20.9823 36.2687L39.3286 5.4278ZM11.0938 14.0248H32.3966L28.8486 19.989H9.53125V15.5873C9.53125 14.7258 10.2322 14.0248 11.0938 14.0248ZM68.9062 56.8759H11.0938C10.2322 56.8759 9.53125 56.175 9.53125 55.3134V50.565H70.4688V55.3134C70.4688 56.175 69.7678 56.8759 68.9062 56.8759Z" fill="#2626BC"/>
<path d="M40 27.7923C39.1372 27.7923 38.4375 27.0928 38.4375 26.2298V15.9564C38.4375 15.0934 39.1372 14.3939 40 14.3939C40.8628 14.3939 41.5625 15.0934 41.5625 15.9564V26.2298C41.5625 27.0928 40.8628 27.7923 40 27.7923Z" fill="#F11B23"/>
<path d="M40 32.6451C39.1372 32.6451 38.4375 31.9456 38.4375 31.0826V31.0647C38.4375 30.2017 39.1372 29.5022 40 29.5022C40.8628 29.5022 41.5625 30.2017 41.5625 31.0647V31.0826C41.5625 31.9456 40.8628 32.6451 40 32.6451Z" fill="#F11B23"/>
<path d="M19.2352 45.4565C19.0353 45.4565 18.8352 45.3803 18.6828 45.2278C18.3172 44.8623 17.7225 44.862 17.357 45.2278C17.0522 45.5328 16.5572 45.5328 16.2523 45.2278C16.0997 45.0751 16.0234 44.8753 16.0234 44.6753C16.0234 44.4753 16.0997 44.2754 16.2523 44.1228C16.4294 43.9457 16.5269 43.7103 16.5269 43.4598C16.5269 43.2093 16.4294 42.974 16.2523 42.797C16.0997 42.6445 16.0234 42.4445 16.0234 42.2447C16.0234 42.0447 16.0997 41.8447 16.2522 41.6922C16.5573 41.387 17.0519 41.3869 17.357 41.6922C17.5342 41.8692 17.7697 41.9667 18.02 41.9667C18.2703 41.9667 18.5056 41.8692 18.6827 41.6922C18.9878 41.387 19.4824 41.3869 19.7875 41.6922C19.9402 41.8447 20.0164 42.0447 20.0164 42.2445C20.0164 42.4445 19.9402 42.6445 19.7877 42.797C19.422 43.1626 19.422 43.7573 19.7875 44.1228C19.9402 44.2754 20.0164 44.4753 20.0164 44.6753C20.0164 44.8753 19.9402 45.0751 19.7875 45.2278C19.6352 45.3803 19.4352 45.4565 19.2352 45.4565Z" fill="#6583FE"/>
<path d="M25.5888 45.4565C25.389 45.4565 25.1888 45.3803 25.0365 45.2278C24.6709 44.8621 24.0762 44.8621 23.7105 45.2278C23.4057 45.5328 22.9107 45.5328 22.6059 45.2278C22.4532 45.0751 22.377 44.8753 22.377 44.6753C22.377 44.4753 22.4532 44.2754 22.6059 44.1228C22.7829 43.9457 22.8804 43.7103 22.8804 43.4598C22.8804 43.2093 22.7829 42.974 22.6059 42.797C22.4532 42.6445 22.377 42.4445 22.377 42.2447C22.377 42.0447 22.4532 41.8447 22.6057 41.6922C22.9109 41.387 23.4054 41.3869 23.7105 41.6922C24.0762 42.0576 24.6709 42.0576 25.0365 41.6922C25.3413 41.3872 25.8362 41.387 26.1413 41.6922C26.2938 41.8447 26.3701 42.0447 26.3701 42.2447C26.3701 42.4445 26.2938 42.6445 26.1412 42.797C25.9641 42.974 25.8666 43.2095 25.8666 43.4598C25.8666 43.7101 25.9641 43.9456 26.1412 44.1228C26.2938 44.2754 26.3701 44.4753 26.3701 44.6753C26.3701 44.8753 26.2938 45.0751 26.1412 45.2278C25.9888 45.3803 25.7888 45.4565 25.5888 45.4565Z" fill="#6583FE"/>
<path d="M31.9433 45.4565C31.7435 45.4565 31.5433 45.3803 31.391 45.2278C31.0253 44.8621 30.4307 44.8621 30.065 45.2278C29.7602 45.5328 29.2652 45.5328 28.9604 45.2278C28.8077 45.0751 28.7314 44.8753 28.7314 44.6753C28.7314 44.4753 28.8077 44.2754 28.9604 44.1228C29.1374 43.9457 29.2349 43.7103 29.2349 43.4598C29.2349 43.2093 29.1374 42.974 28.9604 42.797C28.8077 42.6445 28.7314 42.4445 28.7314 42.2447C28.7314 42.0447 28.8077 41.8447 28.9602 41.6922C29.2653 41.387 29.7599 41.3869 30.065 41.6922C30.4307 42.0576 31.0253 42.0576 31.391 41.6922C31.6958 41.3872 32.1907 41.387 32.4958 41.6922C32.6483 41.8447 32.7246 42.0447 32.7246 42.2447C32.7246 42.4445 32.6483 42.6445 32.4957 42.797C32.3186 42.974 32.2211 43.2095 32.2211 43.4598C32.2211 43.7101 32.3186 43.9456 32.4957 44.1228C32.6483 44.2754 32.7246 44.4753 32.7246 44.6753C32.7246 44.8753 32.6483 45.0751 32.4957 45.2278C32.3433 45.3803 32.1433 45.4565 31.9433 45.4565Z" fill="#6583FE"/>
<path d="M62.412 42.7648H37.8567C37.4245 42.7648 37.0742 42.4145 37.0742 41.9823C37.0742 41.5501 37.4245 41.1998 37.8567 41.1998H62.412C62.8442 41.1998 63.1945 41.5501 63.1945 41.9823C63.1945 42.4145 62.8444 42.7648 62.412 42.7648Z" fill="#2626BC"/>
<path d="M62.412 45.7201H37.8567C37.4245 45.7201 37.0742 45.3698 37.0742 44.9376C37.0742 44.5055 37.4245 44.1551 37.8567 44.1551H62.412C62.8442 44.1551 63.1945 44.5055 63.1945 44.9376C63.1945 45.3697 62.8444 45.7201 62.412 45.7201Z" fill="#2626BC"/>
<path d="M22.4598 66.2183C22.2526 66.2183 22.0539 66.1359 21.9075 65.9895L20.1859 64.268C19.8807 63.9628 19.8807 63.4681 20.1859 63.1631L21.9075 61.4416C22.054 61.295 22.2526 61.2128 22.4598 61.2128C22.667 61.2128 22.8657 61.2951 23.0121 61.4416L24.7339 63.1631C24.8804 63.3097 24.9628 63.5083 24.9628 63.7156C24.9628 63.923 24.8806 64.1215 24.7339 64.2681L23.0121 65.9897C22.8657 66.1359 22.667 66.2183 22.4598 66.2183ZM21.8432 63.7155L22.4598 64.3322L23.0765 63.7155L22.4598 63.0987L21.8432 63.7155Z" fill="#6583FE"/>
<path d="M50.1338 8.12842C49.9266 8.12842 49.7279 8.04608 49.5815 7.89967L47.8598 6.17811C47.7132 6.03155 47.6309 5.83295 47.6309 5.62561C47.6309 5.41826 47.7131 5.21967 47.8598 5.07311L49.5815 3.35155C49.728 3.20498 49.9266 3.1228 50.1338 3.1228C50.341 3.1228 50.5398 3.20514 50.6862 3.35155L52.4077 5.07311C52.7129 5.37826 52.7129 5.87295 52.4077 6.17795L50.6862 7.89951C50.5398 8.04608 50.341 8.12842 50.1338 8.12842ZM49.5171 5.62561L50.1338 6.24233L50.7504 5.62561L50.1338 5.00889L49.5171 5.62561Z" fill="#6583FE"/>
<path d="M57.0284 5.2078C56.5968 5.2078 56.2471 4.85795 56.2471 4.42655C56.2471 3.90811 55.8252 3.48623 55.3066 3.48623C54.8751 3.48623 54.5254 3.13639 54.5254 2.70498C54.5254 2.27358 54.8751 1.92373 55.3066 1.92373C55.8251 1.92373 56.2471 1.50186 56.2471 0.983421C56.2471 0.552015 56.5968 0.202171 57.0284 0.202171C57.4599 0.202171 57.8096 0.552015 57.8096 0.983421C57.8096 1.50186 58.2313 1.92373 58.7499 1.92373C59.1815 1.92373 59.5312 2.27358 59.5312 2.70498C59.5312 3.13639 59.1815 3.48623 58.7499 3.48623C58.2315 3.48623 57.8096 3.90811 57.8096 4.42655C57.8096 4.85811 57.4599 5.2078 57.0284 5.2078Z" fill="#6583FE"/>
<path d="M25.5887 8.12842C25.1572 8.12842 24.8075 7.77858 24.8075 7.34717C24.8075 6.82873 24.3858 6.40686 23.8672 6.40686C23.4356 6.40686 23.0859 6.05701 23.0859 5.62561C23.0859 5.1942 23.4356 4.84436 23.8672 4.84436C24.3856 4.84436 24.8075 4.42248 24.8075 3.90405C24.8075 3.47264 25.1572 3.1228 25.5887 3.1228C26.0203 3.1228 26.37 3.47264 26.37 3.90405C26.37 4.42248 26.7919 4.84436 27.3105 4.84436C27.742 4.84436 28.0917 5.1942 28.0917 5.62561C28.0917 6.05701 27.742 6.40686 27.3105 6.40686C26.792 6.40686 26.37 6.82873 26.37 7.34717C26.37 7.77858 26.0203 8.12842 25.5887 8.12842Z" fill="#6583FE"/>
<defs>
<linearGradient id="paint0_linear" x1="0.172463" y1="21.2931" x2="82.4034" y2="44.6426" gradientUnits="userSpaceOnUse">
<stop stop-color="#D2DEFF" stop-opacity="0"/>
<stop offset="1" stop-color="#B7C5FF"/>
</linearGradient>
</defs>
</svg>
